<svg width="33" height="33" viewBox="0 0 33 33" fill="none" xmlns="http://www.w3.org/2000/svg">
<g clip-path="url(#clip0_31_3204)">
<path d="M16.5 33C25.6127 33 33 25.6127 33 16.5C33 7.3873 25.6127 0 16.5 0C7.3873 0 0 7.3873 0 16.5C0 25.6127 7.3873 33 16.5 33Z" fill="#F0F0F0"/>
<path d="M3.41087 6.45447C2.11478 8.14075 1.13748 10.0843 0.56842 12.1958H9.15216L3.41087 6.45447Z" fill="#0052B4"/>
<path d="M32.4316 12.1958C31.8625 10.0844 30.8851 8.14082 29.5891 6.45453L23.848 12.1958H32.4316Z" fill="#0052B4"/>
<path d="M0.56842 20.8044C1.13754 22.9158 2.11484 24.8594 3.41087 26.5456L9.15197 20.8044H0.56842Z" fill="#0052B4"/>
<path d="M26.5455 3.41093C24.8593 2.11484 22.9157 1.13754 20.8043 0.56842V9.15209L26.5455 3.41093Z" fill="#0052B4"/>
<path d="M6.45447 29.5891C8.14075 30.8852 10.0843 31.8625 12.1957 32.4316V23.848L6.45447 29.5891Z" fill="#0052B4"/>
<path d="M12.1956 0.56842C10.0843 1.13754 8.14069 2.11484 6.45447 3.41087L12.1956 9.15203V0.56842Z" fill="#0052B4"/>
<path d="M20.8044 32.4316C22.9157 31.8625 24.8593 30.8852 26.5455 29.5892L20.8044 23.848V32.4316Z" fill="#0052B4"/>
<path d="M23.848 20.8044L29.5891 26.5457C30.8851 24.8594 31.8625 22.9158 32.4316 20.8044H23.848Z" fill="#0052B4"/>
<path d="M32.8603 14.3478H18.6523H18.6522V0.13967C17.9477 0.0479531 17.2294 0 16.5 0C15.7705 0 15.0523 0.0479531 14.3478 0.13967V14.3477V14.3478H0.13967C0.0479531 15.0523 0 15.7706 0 16.5C0 17.2295 0.0479531 17.9477 0.13967 18.6522H14.3477H14.3478V32.8603C15.0523 32.952 15.7705 33 16.5 33C17.2294 33 17.9477 32.9521 18.6522 32.8603V18.6523V18.6522H32.8603C32.952 17.9477 33 17.2295 33 16.5C33 15.7706 32.952 15.0523 32.8603 14.3478V14.3478Z" fill="#D80027"/>
<path d="M20.8044 20.8044L28.1673 28.1673C28.5059 27.8288 28.8289 27.4749 29.1371 27.108L22.8335 20.8044H20.8044V20.8044Z" fill="#D80027"/>
<path d="M12.1956 20.8044H12.1955L4.8327 28.1672C5.17121 28.5059 5.52512 28.8289 5.89199 29.1371L12.1956 22.8334V20.8044Z" fill="#D80027"/>
<path d="M12.1956 12.1958V12.1956L4.83274 4.8327C4.49411 5.17121 4.17107 5.52512 3.86285 5.89199L10.1666 12.1957H12.1956V12.1958Z" fill="#D80027"/>
<path d="M20.8044 12.1958L28.1673 4.83277C27.8288 4.49414 27.4749 4.1711 27.108 3.86295L20.8044 10.1667V12.1958Z" fill="#D80027"/>
</g>
<defs>
<clipPath id="clip0_31_3204">
<rect width="33" height="33" fill="white"/>
</clipPath>
</defs>
</svg>
