        <svg
          width="18"
          height="18"
          viewBox="0 0 24 24"
          fill="none"
          xmlns="http://www.w3.org/2000/svg"
        >
          <path
            d="M10.9921 14.8049C11.9973 14.1357 12.7605 13.1608 13.1687 12.0244C13.577 10.8879 13.6087 9.65022 13.2591 8.49435C12.9095 7.33848 12.1973 6.32579 11.2276 5.60603C10.258 4.88627 9.0825 4.49766 7.87492 4.49766C6.66735 4.49766 5.49184 4.88627 4.52221 5.60603C3.55258 6.32579 2.84032 7.33848 2.49076 8.49435C2.1412 9.65022 2.17288 10.8879 2.58114 12.0244C2.9894 13.1608 3.75255 14.1357 4.75774 14.8049C2.93945 15.4751 1.38659 16.7152 0.330862 18.3403C0.275377 18.4227 0.236837 18.5154 0.217482 18.6129C0.198127 18.7104 0.198344 18.8107 0.218119 18.9081C0.237895 19.0056 0.276835 19.0981 0.332676 19.1803C0.388516 19.2625 0.460144 19.3328 0.543396 19.3871C0.626647 19.4414 0.719861 19.4786 0.81762 19.4966C0.915378 19.5145 1.01573 19.5129 1.11285 19.4917C1.20996 19.4706 1.3019 19.4303 1.38332 19.3733C1.46473 19.3163 1.53401 19.2436 1.58711 19.1596C2.2681 18.1122 3.19995 17.2516 4.29802 16.6557C5.3961 16.0599 6.62562 15.7478 7.87492 15.7478C9.12423 15.7478 10.3538 16.0599 11.4518 16.6557C12.5499 17.2516 13.4817 18.1122 14.1627 19.1596C14.2727 19.3231 14.4427 19.4368 14.6358 19.476C14.8289 19.5152 15.0297 19.4768 15.1947 19.3691C15.3598 19.2615 15.4758 19.0932 15.5178 18.9007C15.5598 18.7081 15.5243 18.5068 15.419 18.3403C14.3633 16.7152 12.8104 15.4751 10.9921 14.8049ZM3.74992 10.1249C3.74992 9.30909 3.99185 8.51157 4.44511 7.83321C4.89837 7.15486 5.54261 6.62615 6.29636 6.31394C7.0501 6.00173 7.8795 5.92004 8.67967 6.0792C9.47984 6.23837 10.2148 6.63123 10.7917 7.20812C11.3686 7.78502 11.7615 8.52002 11.9207 9.32019C12.0798 10.1204 11.9981 10.9498 11.6859 11.7035C11.3737 12.4573 10.845 13.1015 10.1667 13.5548C9.4883 14.008 8.69077 14.2499 7.87492 14.2499C6.78129 14.2487 5.7328 13.8137 4.95948 13.0404C4.18616 12.2671 3.75117 11.2186 3.74992 10.1249ZM23.4506 19.3781C23.284 19.4867 23.081 19.5247 22.8864 19.4838C22.6918 19.4428 22.5214 19.3262 22.4127 19.1596C21.7326 18.1116 20.8008 17.2506 19.7025 16.655C18.6042 16.0594 17.3743 15.7483 16.1249 15.7499C15.926 15.7499 15.7352 15.6709 15.5946 15.5303C15.4539 15.3896 15.3749 15.1989 15.3749 14.9999C15.3749 14.801 15.4539 14.6103 15.5946 14.4696C15.7352 14.329 15.926 14.2499 16.1249 14.2499C16.7324 14.2494 17.3322 14.1146 17.8816 13.8554C18.431 13.5961 18.9163 13.2187 19.3029 12.7501C19.6895 12.2815 19.9678 11.7333 20.118 11.1447C20.2682 10.5561 20.2865 9.9416 20.1716 9.34508C20.0568 8.74856 19.8116 8.18478 19.4536 7.694C19.0956 7.20322 18.6337 6.79757 18.1007 6.50603C17.5678 6.21449 16.977 6.04426 16.3707 6.0075C15.7643 5.97074 15.1573 6.06836 14.5931 6.29338C14.501 6.33315 14.402 6.35408 14.3018 6.35492C14.2016 6.35577 14.1022 6.33652 14.0095 6.29831C13.9169 6.2601 13.8328 6.2037 13.7623 6.13246C13.6918 6.06121 13.6363 5.97655 13.5991 5.88349C13.5619 5.79043 13.5437 5.69086 13.5456 5.59065C13.5475 5.49043 13.5695 5.39162 13.6102 5.30005C13.651 5.20848 13.7097 5.126 13.7828 5.05749C13.856 4.98899 13.9421 4.93584 14.0362 4.90119C15.3275 4.38618 16.7639 4.36764 18.0681 4.84917C19.3723 5.33069 20.452 6.27815 21.0989 7.50877C21.7458 8.73939 21.914 10.166 21.5711 11.5133C21.2283 12.8606 20.3986 14.0333 19.2421 14.8049C21.0604 15.4751 22.6133 16.7152 23.669 18.3403C23.7776 18.5068 23.8156 18.7098 23.7747 18.9044C23.7337 19.099 23.6171 19.2694 23.4506 19.3781Z"
            fill="#5C6165"
          />
        </svg>