<svg width="29" height="29" viewBox="0 0 29 29" fill="none" xmlns="http://www.w3.org/2000/svg">
<path d="M10.6563 0.406677H2.96875C2.28913 0.406677 1.63735 0.676654 1.15679 1.15722C0.676227 1.63778 0.40625 2.28956 0.40625 2.96918V10.6567C0.40625 11.3363 0.676227 11.9881 1.15679 12.4686C1.63735 12.9492 2.28913 13.2192 2.96875 13.2192H10.6563C11.3359 13.2192 11.9876 12.9492 12.4682 12.4686C12.9488 11.9881 13.2188 11.3363 13.2188 10.6567V2.96918C13.2188 2.28956 12.9488 1.63778 12.4682 1.15722C11.9876 0.676654 11.3359 0.406677 10.6563 0.406677ZM10.6563 10.6567H2.96875V2.96918H10.6563V10.6567ZM10.6563 15.7817H2.96875C2.28913 15.7817 1.63735 16.0517 1.15679 16.5322C0.676227 17.0128 0.40625 17.6646 0.40625 18.3442V26.0317C0.40625 26.7113 0.676227 27.3631 1.15679 27.8436C1.63735 28.3242 2.28913 28.5942 2.96875 28.5942H10.6563C11.3359 28.5942 11.9876 28.3242 12.4682 27.8436C12.9488 27.3631 13.2188 26.7113 13.2188 26.0317V18.3442C13.2188 17.6646 12.9488 17.0128 12.4682 16.5322C11.9876 16.0517 11.3359 15.7817 10.6563 15.7817ZM10.6563 26.0317H2.96875V18.3442H10.6563V26.0317ZM26.0313 0.406677H18.3438C17.6641 0.406677 17.0124 0.676654 16.5318 1.15722C16.0512 1.63778 15.7813 2.28956 15.7813 2.96918V10.6567C15.7813 11.3363 16.0512 11.9881 16.5318 12.4686C17.0124 12.9492 17.6641 13.2192 18.3438 13.2192H26.0313C26.7109 13.2192 27.3627 12.9492 27.8432 12.4686C28.3238 11.9881 28.5938 11.3363 28.5938 10.6567V2.96918C28.5938 2.28956 28.3238 1.63778 27.8432 1.15722C27.3627 0.676654 26.7109 0.406677 26.0313 0.406677ZM26.0313 10.6567H18.3438V2.96918H26.0313V10.6567ZM15.7813 22.1879V17.0629C15.7813 16.7231 15.9162 16.3972 16.1565 16.1569C16.3968 15.9167 16.7227 15.7817 17.0625 15.7817C17.4023 15.7817 17.7282 15.9167 17.9685 16.1569C18.2088 16.3972 18.3438 16.7231 18.3438 17.0629V22.1879C18.3438 22.5277 18.2088 22.8536 17.9685 23.0939C17.7282 23.3342 17.4023 23.4692 17.0625 23.4692C16.7227 23.4692 16.3968 23.3342 16.1565 23.0939C15.9162 22.8536 15.7813 22.5277 15.7813 22.1879ZM28.5938 19.6254C28.5938 19.9652 28.4588 20.2911 28.2185 20.5314C27.9782 20.7717 27.6523 20.9067 27.3125 20.9067H23.4688V27.3129C23.4688 27.6527 23.3338 27.9786 23.0935 28.2189C22.8532 28.4592 22.5273 28.5942 22.1875 28.5942H17.0625C16.7227 28.5942 16.3968 28.4592 16.1565 28.2189C15.9162 27.9786 15.7813 27.6527 15.7813 27.3129C15.7813 26.9731 15.9162 26.6472 16.1565 26.4069C16.3968 26.1667 16.7227 26.0317 17.0625 26.0317H20.9063V17.0629C20.9063 16.7231 21.0412 16.3972 21.2815 16.1569C21.5218 15.9167 21.8477 15.7817 22.1875 15.7817C22.5273 15.7817 22.8532 15.9167 23.0935 16.1569C23.3338 16.3972 23.4688 16.7231 23.4688 17.0629V18.3442H27.3125C27.6523 18.3442 27.9782 18.4792 28.2185 18.7194C28.4588 18.9597 28.5938 19.2856 28.5938 19.6254ZM28.5938 24.7504V27.3129C28.5938 27.6527 28.4588 27.9786 28.2185 28.2189C27.9782 28.4592 27.6523 28.5942 27.3125 28.5942C26.9727 28.5942 26.6468 28.4592 26.4065 28.2189C26.1662 27.9786 26.0313 27.6527 26.0313 27.3129V24.7504C26.0313 24.4106 26.1662 24.0847 26.4065 23.8444C26.6468 23.6042 26.9727 23.4692 27.3125 23.4692C27.6523 23.4692 27.9782 23.6042 28.2185 23.8444C28.4588 24.0847 28.5938 24.4106 28.5938 24.7504Z" fill="white"/>
</svg>
