        <svg
          width="26"
          height="30"
          viewBox="0 0 26 30"
          fill="none"
          xmlns="http://www.w3.org/2000/svg"
        >
          <path
            d="M13.0001 30C11.9038 30 10.8357 29.442 10.1049 28.4652L8.68543 26.5814C8.39029 26.1907 7.99679 25.9675 7.57516 25.9395C7.15354 25.9257 6.73192 26.107 6.39462 26.4559L5.59354 25.7442L6.3665 26.4559C4.34271 28.6047 2.78271 28.4373 2.03785 28.1443C1.27893 27.8513 0 26.8885 0 23.7908V8.07909C0 1.88372 1.79893 0 7.68759 0H18.3125C24.2011 0 26 1.88372 26 8.07909V23.7908C26 26.8745 24.7212 27.8373 23.9623 28.1443C23.2173 28.4373 21.6714 28.6047 19.6335 26.4559C19.2962 26.0931 18.8887 25.8977 18.439 25.9395C18.0174 25.9675 17.6097 26.1907 17.3146 26.5814L15.8952 28.4652C15.1643 29.442 14.0963 30 13.0001 30ZM7.49084 23.8326C7.54705 23.8326 7.61733 23.8326 7.67353 23.8326C8.71355 23.8884 9.69732 24.4325 10.3579 25.3116L11.7774 27.1953C12.4659 28.1024 13.52 28.1024 14.2087 27.1953L15.6281 25.3116C16.3027 24.4325 17.2724 23.8884 18.3265 23.8326C19.3666 23.7768 20.4065 24.2094 21.1654 25.0186C22.2336 26.1488 22.9363 26.2884 23.1751 26.1907C23.5124 26.0513 23.8779 25.2419 23.8779 23.7908V8.07909C23.8779 3.04186 22.9925 2.09303 18.2984 2.09303H7.68759C2.99352 2.09303 2.10811 3.04186 2.10811 8.07909V23.7908C2.10811 25.2559 2.47353 26.0651 2.81083 26.1907C3.04974 26.2884 3.75244 26.1488 4.82056 25.0186C5.57948 24.2513 6.52111 23.8326 7.49084 23.8326Z"
          />
          <path
            d="M18.8947 9H7.10527C6.50106 9 6 8.54668 6 8C6 7.45334 6.50106 7 7.10527 7H18.8947C19.4991 7 20 7.45334 20 8C20 8.54668 19.4991 9 18.8947 9Z"
          />
          <path
            d="M17 15H9C8.45334 15 8 14.5466 8 14C8 13.4533 8.45334 13 9 13H17C17.5466 13 18 13.4533 18 14C18 14.5466 17.5466 15 17 15Z"
          />
        </svg>