<svg width="25" height="25" viewBox="0 0 25 25" fill="none" xmlns="http://www.w3.org/2000/svg">
<path d="M15.0338 1.74124C15.0677 1.61433 15.1263 1.49535 15.2063 1.3911C15.2862 1.28686 15.3859 1.19938 15.4997 1.13368C15.6134 1.06798 15.739 1.02533 15.8693 1.00819C15.9995 0.991037 16.1319 0.999721 16.2588 1.03374C18.1126 1.51743 19.804 2.48655 21.1587 3.84129C22.5135 5.19603 23.4826 6.88741 23.9663 8.74124C24.0003 8.86813 24.009 9.00048 23.9918 9.13073C23.9747 9.26098 23.932 9.38657 23.8663 9.50033C23.8006 9.61409 23.7131 9.71379 23.6089 9.79374C23.5047 9.87368 23.3857 9.9323 23.2588 9.96624C23.1743 9.98843 23.0873 9.99977 23 9.99999C22.7796 9.99998 22.5655 9.92719 22.3907 9.79292C22.216 9.65865 22.0905 9.47042 22.0338 9.25749C21.6393 7.74414 20.8483 6.36338 19.7425 5.25752C18.6366 4.15166 17.2559 3.36073 15.7425 2.96624C15.6155 2.93243 15.4964 2.87391 15.392 2.79402C15.2876 2.71414 15.2 2.61446 15.1342 2.50068C15.0683 2.38691 15.0256 2.26127 15.0084 2.13096C14.9911 2.00064 14.9998 1.86821 15.0338 1.74124ZM14.7425 6.96624C16.4663 7.42624 17.5738 8.53374 18.0338 10.2575C18.0905 10.4704 18.216 10.6586 18.3907 10.7929C18.5655 10.9272 18.7796 11 19 11C19.0873 10.9998 19.1743 10.9884 19.2588 10.9662C19.3857 10.9323 19.5047 10.8737 19.6089 10.7937C19.7131 10.7138 19.8006 10.6141 19.8663 10.5003C19.932 10.3866 19.9747 10.261 19.9918 10.1307C20.009 10.0005 20.0003 9.86813 19.9663 9.74124C19.3263 7.34624 17.6538 5.67374 15.2588 5.03374C15.1319 4.99984 14.9995 4.99127 14.8693 5.00851C14.7391 5.02575 14.6136 5.06847 14.4999 5.13423C14.3862 5.19998 14.2866 5.28749 14.2067 5.39175C14.1268 5.49601 14.0683 5.61498 14.0344 5.74187C14.0005 5.86876 13.9919 6.00108 14.0092 6.13128C14.0264 6.26149 14.0691 6.38702 14.1349 6.50071C14.2006 6.6144 14.2881 6.71403 14.3924 6.79391C14.4967 6.87379 14.6156 6.93234 14.7425 6.96624ZM24.985 18.885C24.7621 20.5788 23.9303 22.1335 22.6449 23.2588C21.3595 24.3841 19.7084 25.0031 18 25C8.07501 25 1.13108e-05 16.925 1.13108e-05 6.99999C-0.00305116 5.2916 0.61587 3.64052 1.74118 2.35511C2.86649 1.0697 4.42122 0.237875 6.11501 0.0149912C6.54333 -0.0373076 6.97707 0.0503186 7.35149 0.264789C7.72592 0.47926 8.02094 0.809072 8.19251 1.20499L10.8325 7.09874V7.11374C10.9639 7.41681 11.0181 7.74769 10.9904 8.07684C10.9627 8.40598 10.8539 8.72314 10.6738 8.99999C10.6513 9.03374 10.6275 9.06499 10.6025 9.09624L8.00001 12.1812C8.93626 14.0837 10.9263 16.0562 12.8538 16.995L15.8963 14.4062C15.9261 14.3811 15.9574 14.3578 15.99 14.3362C16.2666 14.1517 16.5849 14.0391 16.916 14.0086C17.2471 13.978 17.5806 14.0305 17.8863 14.1612L17.9025 14.1687L23.7913 16.8075C24.1879 16.9785 24.5185 17.2732 24.7337 17.6477C24.9489 18.0222 25.037 18.4562 24.985 18.885ZM23 18.635C23 18.635 22.9913 18.635 22.9863 18.635L17.1113 16.0037L14.0675 18.5925C14.038 18.6175 14.0071 18.6409 13.975 18.6625C13.6872 18.8545 13.3545 18.9686 13.0094 18.9935C12.6644 19.0185 12.3187 18.9536 12.0063 18.805C9.66501 17.6737 7.33126 15.3575 6.19876 13.0412C6.0488 12.7311 5.9815 12.3874 6.0034 12.0436C6.0253 11.6997 6.13565 11.3674 6.32376 11.0787C6.34496 11.0448 6.36879 11.0127 6.39501 10.9825L9.00001 7.89374L6.37501 2.01874C6.37452 2.01375 6.37452 2.00873 6.37501 2.00374C5.16283 2.16186 4.04986 2.75645 3.24453 3.67613C2.43919 4.59582 1.99674 5.77754 2.00001 6.99999C2.00464 11.242 3.69184 15.309 6.69142 18.3086C9.691 21.3082 13.758 22.9954 18 23C19.2217 23.0042 20.4031 22.5633 21.3233 21.7597C22.2436 20.9561 22.8396 19.8449 23 18.6337V18.635Z" fill="#5C6165"/>
</svg>
