        <svg width="28" height="30" viewBox="0 0 28 30" fill="none" xmlns="http://www.w3.org/2000/svg">
          <path
            d="M27.2367 13.894V26.9278C27.2367 27.5261 26.999 28.0998 26.576 28.5229C26.153 28.9459 25.5792 29.1835 24.9809 29.1835H19.3416C18.7434 29.1835 18.1696 28.9459 17.7466 28.5229C17.3236 28.0998 17.0859 27.5261 17.0859 26.9278V21.2885C17.0859 20.9894 16.9671 20.7025 16.7556 20.491C16.544 20.2795 16.2572 20.1606 15.958 20.1606H11.4466C11.1475 20.1606 10.8606 20.2795 10.6491 20.491C10.4376 20.7025 10.3187 20.9894 10.3187 21.2885V26.9278C10.3187 27.5261 10.0811 28.0998 9.65804 28.5229C9.23501 28.9459 8.66126 29.1835 8.06301 29.1835H2.42369C1.82544 29.1835 1.25169 28.9459 0.828655 28.5229C0.405625 28.0998 0.167969 27.5261 0.167969 26.9278V13.894C0.167921 13.5818 0.232679 13.273 0.358143 12.9871C0.483607 12.7012 0.667045 12.4445 0.89685 12.2332L12.1755 1.5918L12.191 1.57629C12.6062 1.19864 13.1474 0.98938 13.7087 0.98938C14.27 0.98938 14.8111 1.19864 15.2263 1.57629C15.2312 1.58181 15.2363 1.58699 15.2419 1.5918L26.5205 12.2332C26.748 12.4456 26.9291 12.7028 27.0523 12.9886C27.1756 13.2745 27.2383 13.5827 27.2367 13.894Z" />
        </svg>